<?xml version="1.0" encoding="UTF-8"?>
<svg xmlns="http://www.w3.org/2000/svg" xmlns:xlink="http://www.w3.org/1999/xlink" width="1452px" height="2050px" viewBox="0 0 1452 2050" version="1.1">
<g id="surface1">
<path style=" stroke:none;fill-rule:nonzero;fill:rgb(100%,100%,100%);fill-opacity:1;" d="M 4.878906 400.234375 L 5.105469 418.535156 C 5.234375 428.605469 34.371094 761.914062 69.863281 1159.222656 L 134.386719 1881.605469 L 424.402344 1962.878906 C 583.910156 2007.578125 717.710938 2044.375 721.734375 2044.660156 C 725.757812 2044.941406 861.324219 2008.511719 1022.992188 1963.707031 C 1282.199219 1891.875 1317.191406 1881.054688 1319.046875 1872.164062 C 1321.632812 1859.773438 1448.566406 426.550781 1448.433594 411.214844 L 1448.339844 400.234375 Z M 4.878906 400.234375 "/>
<path style=" stroke:none;fill-rule:nonzero;fill:rgb(91.764706%,92.156863%,92.54902%);fill-opacity:1;" d="M 426.699219 1967.742188 L 134.105469 1885.882812 L 130.28125 1864.21875 C 126.882812 1844.964844 0 426.53125 0 407.792969 C 0 401.007812 74.082031 400.238281 726.609375 400.238281 C 1415.390625 400.238281 1453.214844 400.683594 1453.164062 408.78125 C 1452.933594 443.75 1321.597656 1880.96875 1318.371094 1883.828125 C 1314.292969 1887.441406 747.972656 2045.359375 729.046875 2048.15625 C 723.683594 2048.953125 587.628906 2012.765625 426.699219 1967.742188 Z M 911.105469 1678.496094 C 1009.449219 1651.347656 1091.332031 1627.738281 1093.066406 1626.027344 C 1094.800781 1624.316406 1106.308594 1507.605469 1118.640625 1366.667969 C 1130.972656 1225.730469 1142.304688 1101.082031 1143.828125 1089.671875 L 1146.59375 1068.929688 L 721.734375 1068.929688 L 721.734375 1249.523438 L 951.117188 1249.523438 L 948.835938 1260.507812 C 947.582031 1266.546875 942.703125 1318.453125 937.996094 1375.855469 C 933.007812 1436.675781 927.097656 1482.5625 923.824219 1485.839844 C 920.738281 1488.929688 874.003906 1503.25 819.972656 1517.667969 L 721.734375 1543.875 L 721.734375 1635.867188 C 721.734375 1698.652344 723.410156 1727.855469 727.015625 1727.855469 C 729.921875 1727.855469 812.761719 1705.644531 911.105469 1678.496094 Z M 1143.796875 955.445312 C 1140.574219 931.53125 1111.859375 610.742188 1111.859375 598.648438 C 1111.859375 591.300781 1094.976562 590.59375 919.234375 590.59375 L 726.609375 590.59375 L 726.609375 779.441406 L 813.167969 782.78125 C 860.777344 784.617188 910.878906 787.414062 924.507812 788.992188 L 949.285156 791.863281 L 955.300781 865.722656 C 958.609375 906.347656 962.554688 947.820312 964.0625 957.886719 L 966.808594 976.191406 L 1146.59375 976.191406 Z M 1143.796875 955.445312 "/>
<path style=" stroke:none;fill-rule:nonzero;fill:rgb(94.117647%,74.509805%,14.509805%);fill-opacity:1;" d="M 424.402344 1962.878906 L 134.386719 1881.605469 L 69.863281 1159.226562 C 34.371094 761.917969 5.230469 428.609375 5.105469 418.542969 L 4.875 400.238281 L 1448.34375 400.238281 L 1448.4375 411.21875 C 1448.566406 426.554688 1321.628906 1859.777344 1319.042969 1872.167969 C 1317.1875 1881.058594 1282.199219 1891.878906 1022.992188 1963.714844 C 861.324219 2008.519531 725.757812 2044.945312 721.734375 2044.664062 C 717.710938 2044.382812 583.910156 2007.578125 424.402344 1962.878906 Z M 911.328125 1681.949219 C 1011.578125 1654.050781 1095.027344 1628.921875 1096.765625 1626.105469 C 1098.503906 1623.289062 1110.480469 1500.617188 1123.382812 1353.5 C 1136.28125 1206.382812 1147.890625 1082.167969 1149.179688 1077.46875 C 1151.398438 1069.398438 1134.339844 1068.929688 840.078125 1068.929688 L 528.628906 1068.929688 L 541.886719 928.601562 C 549.183594 851.421875 555.324219 788.074219 555.539062 787.828125 C 555.753906 787.585938 601.464844 786.125 657.117188 784.585938 C 748.375 782.0625 936.5625 789.347656 942.859375 795.648438 C 945.210938 798.003906 960.683594 949.949219 960.683594 970.691406 C 960.683594 980.921875 962.0625 981.070312 1055.179688 981.070312 L 1149.671875 981.070312 L 1147.445312 960.328125 C 1146.222656 948.917969 1138.21875 860.511719 1129.660156 763.867188 L 1114.097656 588.15625 L 749.671875 586.902344 C 459.753906 585.90625 385.242188 586.90625 385.210938 591.785156 C 385.183594 595.15625 383.0625 616.585938 380.488281 639.40625 C 374.257812 694.621094 326.730469 1228.128906 326.730469 1242.863281 L 326.730469 1254.40625 L 946.914062 1254.40625 L 944.148438 1272.707031 C 942.628906 1282.773438 937.808594 1333.84375 933.4375 1386.191406 C 929.066406 1438.539062 924.082031 1482.722656 922.363281 1484.375 C 917.820312 1488.738281 735.394531 1537.515625 724.019531 1537.40625 C 718.738281 1537.359375 671.625 1525.59375 619.324219 1511.261719 L 524.230469 1485.210938 L 520.746094 1444.242188 C 518.828125 1421.710938 515.910156 1389.546875 514.261719 1372.769531 L 511.265625 1342.261719 L 326.730469 1342.261719 L 326.933594 1360.566406 C 327.316406 1394.796875 349.492188 1625.363281 352.714844 1628.585938 C 356.4375 1632.3125 710.820312 1732.019531 721.734375 1732.410156 C 725.757812 1732.554688 811.074219 1709.847656 911.328125 1681.949219 Z M 911.328125 1681.949219 "/>
<path style=" stroke:none;fill-rule:nonzero;fill:rgb(89.411765%,63.137257%,14.901961%);fill-opacity:1;" d="M 424.402344 1962.878906 L 134.386719 1881.605469 L 69.863281 1159.226562 C 34.371094 761.917969 5.230469 428.609375 5.105469 418.542969 L 4.875 400.238281 L 1448.34375 400.238281 L 1448.4375 411.21875 C 1448.566406 426.554688 1321.628906 1859.777344 1319.042969 1872.167969 C 1317.1875 1881.058594 1282.199219 1891.878906 1022.992188 1963.714844 C 861.324219 2008.519531 725.757812 2044.945312 721.734375 2044.664062 C 717.710938 2044.382812 583.910156 2007.578125 424.402344 1962.878906 Z M 965.242188 1854.152344 C 1092.820312 1818.917969 1199.59375 1787.621094 1202.523438 1784.597656 C 1207.082031 1779.898438 1317.265625 571.238281 1316.820312 530.804688 L 1316.675781 517.382812 L 726.609375 517.382812 L 726.609375 585.714844 L 555.929688 585.714844 C 422.65625 585.714844 385.242188 587.050781 385.210938 591.816406 C 385.183594 595.171875 383.0625 616.585938 380.488281 639.40625 C 374.257812 694.621094 326.730469 1228.128906 326.730469 1242.863281 L 326.730469 1254.40625 L 726.609375 1254.40625 L 726.609375 1395.953125 C 726.609375 1505.984375 725.253906 1537.480469 720.515625 1537.40625 C 717.160156 1537.355469 671.625 1525.59375 619.324219 1511.261719 L 524.230469 1485.210938 L 520.746094 1444.242188 C 518.828125 1421.710938 515.910156 1389.546875 514.261719 1372.769531 L 511.265625 1342.261719 L 326.730469 1342.261719 L 326.933594 1360.566406 C 327.519531 1412.917969 350.148438 1626.625 355.453125 1629.90625 C 358.679688 1631.902344 443.507812 1656.296875 543.964844 1684.121094 L 726.609375 1734.707031 L 726.609375 1826.460938 C 726.609375 1876.925781 728.113281 1918.214844 729.949219 1918.214844 C 731.785156 1918.214844 837.667969 1889.386719 965.242188 1854.152344 Z M 541.375 929.914062 C 548.386719 853.453125 555.078125 790.03125 556.246094 788.972656 C 557.414062 787.917969 596.222656 786.003906 642.488281 784.722656 L 726.609375 782.390625 L 726.609375 1068.929688 L 528.628906 1068.929688 Z M 541.375 929.914062 "/>
<path style=" stroke:none;fill-rule:nonzero;fill:rgb(5.490196%,5.490196%,5.882353%);fill-opacity:1;" d="M 463.273438 226.964844 L 463.273438 180.59375 L 594.941406 180.59375 L 594.941406 0 L 687.597656 0 L 687.597656 273.332031 L 463.273438 273.332031 Z M 731.484375 236.726562 L 731.484375 200.117188 L 792.441406 200.117188 C 825.96875 200.117188 853.402344 198.878906 853.402344 197.363281 C 853.402344 195.847656 825.96875 164.851562 792.441406 128.480469 L 731.484375 62.359375 L 731.484375 0 L 985.066406 0 L 985.066406 72.914062 L 925.546875 74.285156 L 866.023438 75.65625 L 927.984375 142.441406 L 989.945312 209.230469 L 989.945312 273.332031 L 731.484375 273.332031 Z M 731.484375 236.726562 "/>
</g>
</svg>
